<?xml version="1.0" encoding="UTF-8"?>
<svg xmlns="http://www.w3.org/2000/svg" xmlns:xlink="http://www.w3.org/1999/xlink" viewBox="0 0 587.15 587.15">
  <defs>
    <style>
      .e {
        fill: #24387e;
      }

      .f {
        fill: #274191;
      }

      .g {
        fill: #eaa400;
      }

      .h {
        fill: #e8a200;
      }

      .i {
        fill: #20c7e8;
      }

      .j {
        fill: #f1e1d3;
      }

      .k {
        clip-path: url(#d);
      }

      .l {
        fill: #e42023;
      }

      .m {
        fill: none;
      }

      .n {
        fill: #010101;
      }
    </style>
    <clipPath id="d">
      <rect width="587.15" height="587.15" style="fill: none;"/>
    </clipPath>
  </defs>
  <g id="a" data-name="Layer 1"/>
  <g id="b" data-name="Layer 2">
    <g id="c" data-name="Ñëîé 1">
      <g style="clip-path: url(#d);">
        <g>
          <path d="M527.08,475.59h-3.86v-22.32c0-17.4-14.16-31.55-31.56-31.55s-31.55,14.15-31.55,31.55v22.32h-3.86v-22.32c0-19.53,15.89-35.41,35.41-35.41s35.42,15.89,35.42,35.41v22.32Z" style="fill: #24387e;"/>
          <rect x="451.49" y="475.59" width="6.66" height="3.7" style="fill: #24387e;"/>
          <rect x="523.3" y="475.59" width="9.66" height="3.7" style="fill: #24387e;"/>
          <polygon points="525.15 475.59 458.18 475.59 454.83 509.07 528.5 509.07 525.15 475.59" style="fill: #e42023;"/>
          <polygon points="448.14 576.04 535.2 576.04 532.96 553.72 450.37 553.72 448.14 576.04" style="fill: #e42023;"/>
          <polygon points="453.72 520.23 451.49 542.56 531.85 542.56 529.61 520.23 453.72 520.23" style="fill: #e42023;"/>
          <polygon points="528.5 509.07 454.84 509.07 453.72 520.24 529.62 520.24 528.5 509.07" style="fill: #24387e;"/>
          <polygon points="450.37 553.72 532.97 553.72 531.85 542.56 451.49 542.56 450.37 553.72" style="fill: #24387e;"/>
          <polygon points="447.02 587.2 536.31 587.2 535.2 576.04 448.14 576.04 447.02 587.2" style="fill: #24387e;"/>
          <path d="M525.15,475.59c0,4.48-14.99,8.12-33.48,8.12s-33.49-3.63-33.49-8.12,14.99-8.12,33.49-8.12,33.48,3.63,33.48,8.12" style="fill: #20c7e8;"/>
          <path d="M281.99,177.06h-41.28c-14.18,0-25.68-11.5-25.68-25.68v-15.6c0-14.19,11.5-25.68,25.68-25.68h41.28v66.97Z" style="fill: #010101;"/>
          <rect x="259.67" y="110.09" width="44.64" height="133.93" style="fill: #f1e1d3;"/>
          <path d="M259.67,138c15.41,0,27.9-12.49,27.9-27.9h-27.9v27.9Z" style="fill: #e42023;"/>
          <path d="M287.75,138h-29.72c-3.08,0-5.58,2.5-5.58,5.58s2.5,5.58,5.58,5.58h29.72v-11.16Z" style="fill: #f1e1d3;"/>
          <path d="M283.65,149.16c0-2.17,1.76-3.93,3.93-3.93s3.93,1.76,3.93,3.93-1.76,3.93-3.93,3.93-3.93-1.76-3.93-3.93" style="fill: #e42023;"/>
          <path d="M305.88,160.32c.9-.6,1.48-1.63,1.48-2.79l-.03-.46c-.31-2.22-3.11-3.08-4.79-1.58l-5.4,4.83,5.4,4.83c1.67,1.5,4.48,.64,4.79-1.58l.03-.46c0-1.16-.59-2.18-1.48-2.79" style="fill: #e42023;"/>
          <path d="M259.67,110.09c0-12.33,9.99-22.32,22.32-22.32s22.32,9.99,22.32,22.32-9.99,22.32-22.32,22.32-22.32-9.99-22.32-22.32" style="fill: #24387e;"/>
          <path d="M270.83,110.09c0-6.17,5-11.16,11.16-11.16s11.16,4.99,11.16,11.16-5,11.16-11.16,11.16-11.16-4.99-11.16-11.16" style="fill: #e42023;"/>
          <path d="M281.99,244.03h-22.32v-22.32h12.97c5.16,0,9.35,4.19,9.35,9.36v12.96Z" style="fill: #e42023;"/>
          <path d="M304.31,244.03h-22.32v-12.8c0-5.26,4.26-9.52,9.52-9.52h12.8v22.32Z" style="fill: #e42023;"/>
          <polygon points="215.02 244.03 348.96 244.03 348.96 267.03 326.64 371 237.35 371 215.02 267.03 215.02 244.03" style="fill: #e42023;"/>
          <path d="M237.35,371c-23.85,5.22-37.12,29.86-36.1,49.94,1.14,22.5,6.84,30.48,26.55,57.64l9.54,71.66-89.29,163.23H438.25l-22.32-118.58-89.29-178.58v-45.32h-89.29Z" style="fill: #eaa400;"/>
          <path d="M250.59,361c0,3.76,1.92,7.04,4.82,8.99,1.35,.91,2.98,1.29,4.6,1.29s3.26-.38,4.61-1.29c2.9-1.95,4.81-5.23,4.81-8.99,0-4.82-3.14-8.86-7.47-10.3,4.33-1.45,7.47-5.49,7.47-10.31s-3.14-8.86-7.47-10.31c4.33-1.45,7.47-5.49,7.47-10.31s-3.14-8.86-7.47-10.31c4.33-1.45,7.47-5.49,7.47-10.3s-3.14-8.86-7.47-10.31c4.33-1.45,7.47-5.49,7.47-10.31s-3.14-8.86-7.47-10.3c4.33-1.45,7.47-5.49,7.47-10.31s-3.14-8.86-7.47-10.31c4.33-1.45,7.47-5.49,7.47-10.3s-3.14-8.86-7.47-10.31c4.33-1.45,7.47-5.49,7.47-10.31s-3.36-9.14-7.93-10.45c-.49-.14-.98-.24-1.5-.31-.51,.07-1.01,.18-1.49,.31-4.57,1.31-7.93,5.46-7.93,10.45s3.14,8.86,7.47,10.31c-4.33,1.45-7.47,5.49-7.47,10.31s3.14,8.86,7.47,10.3c-4.33,1.45-7.47,5.49-7.47,10.31s3.14,8.86,7.47,10.31c-4.33,1.45-7.47,5.49-7.47,10.3s3.14,8.86,7.47,10.31c-4.33,1.45-7.47,5.49-7.47,10.31s3.14,8.86,7.47,10.3c-4.33,1.45-7.47,5.49-7.47,10.31s3.14,8.86,7.47,10.31c-4.33,1.45-7.47,5.49-7.47,10.31s3.14,8.86,7.47,10.31c-4.33,1.44-7.47,5.48-7.47,10.3" style="fill: #010101;"/>
          <path d="M250.59,485.02c0,3.76,1.92,7.04,4.82,9,1.35,.91,2.98,1.29,4.6,1.29s3.26-.38,4.61-1.29c2.9-1.95,4.81-5.24,4.81-9,0-4.82-3.14-8.86-7.47-10.3,4.33-1.45,7.47-5.49,7.47-10.31s-3.14-8.86-7.47-10.31c4.33-1.45,7.47-5.49,7.47-10.31s-3.14-8.86-7.47-10.3c4.33-1.45,7.47-5.49,7.47-10.31s-3.14-8.86-7.47-10.31c4.33-1.44,7.47-5.49,7.47-10.31s-3.14-8.86-7.47-10.3c4.33-1.45,7.47-5.49,7.47-10.3s-3.14-8.86-7.47-10.31c4.33-1.44,7.47-5.49,7.47-10.3s-3.14-8.86-7.47-10.31c4.33-1.45,7.47-5.49,7.47-10.31s-3.36-9.14-7.93-10.44c-.49-.14-.98-.24-1.5-.32-.51,.07-1.01,.18-1.49,.32-4.57,1.3-7.93,5.46-7.93,10.44s3.14,8.86,7.47,10.31c-4.33,1.45-7.47,5.49-7.47,10.31s3.14,8.86,7.47,10.3c-4.33,1.45-7.47,5.49-7.47,10.31s3.14,8.86,7.47,10.3c-4.33,1.45-7.47,5.49-7.47,10.3s3.14,8.86,7.47,10.31c-4.33,1.45-7.47,5.49-7.47,10.31s3.14,8.86,7.47,10.31c-4.33,1.45-7.47,5.49-7.47,10.3s3.14,8.86,7.47,10.31c-4.33,1.45-7.47,5.49-7.47,10.31s3.14,8.86,7.47,10.31c-4.33,1.45-7.47,5.48-7.47,10.3" style="fill: #010101;"/>
          <path d="M250.59,629.52c0,3.76,1.92,7.04,4.82,9,1.35,.91,2.98,1.29,4.6,1.29s3.26-.38,4.61-1.29c2.9-1.95,4.81-5.24,4.81-9,0-4.82-3.14-8.86-7.47-10.3,4.33-1.45,7.47-5.49,7.47-10.31s-3.14-8.86-7.47-10.3c4.33-1.45,7.47-5.49,7.47-10.31s-3.14-8.86-7.47-10.3c4.33-1.45,7.47-5.49,7.47-10.31s-3.14-8.86-7.47-10.31c4.33-1.45,7.47-5.49,7.47-10.31s-3.14-8.86-7.47-10.3c4.33-1.45,7.47-5.49,7.47-10.3s-3.14-8.86-7.47-10.31c4.33-1.45,7.47-5.49,7.47-10.3s-3.14-8.86-7.47-10.31c4.33-1.45,7.47-5.49,7.47-10.3s-3.36-9.14-7.93-10.45c-.49-.14-.98-.24-1.5-.31-.51,.07-1.01,.18-1.49,.31-4.57,1.31-7.93,5.46-7.93,10.45s3.14,8.86,7.47,10.3c-4.33,1.45-7.47,5.49-7.47,10.31s3.14,8.86,7.47,10.3c-4.33,1.45-7.47,5.49-7.47,10.31s3.14,8.86,7.47,10.3c-4.33,1.45-7.47,5.49-7.47,10.3s3.14,8.86,7.47,10.31c-4.33,1.45-7.47,5.49-7.47,10.3s3.14,8.86,7.47,10.31c-4.33,1.45-7.47,5.49-7.47,10.3s3.14,8.86,7.47,10.31c-4.33,1.45-7.47,5.49-7.47,10.3s3.14,8.86,7.47,10.31c-4.33,1.45-7.47,5.48-7.47,10.3" style="fill: #010101;"/>
          <path d="M245.23,191.5c0-7.98,6.47-14.44,14.44-14.44s14.44,6.46,14.44,14.44-6.46,14.44-14.44,14.44-14.44-6.47-14.44-14.44" style="fill: #e8a200;"/>
          <path d="M261.14,179.98c.69,5.23,4.82,9.36,10.05,10.05-.67-5.25-4.79-9.38-10.05-10.05" style="fill: #274191;"/>
          <path d="M259.67,184.39c-1.44,3.14-3.97,5.67-7.11,7.11,3.14,1.44,5.67,3.97,7.11,7.12,1.44-3.14,3.97-5.67,7.11-7.12-3.14-1.44-5.67-3.97-7.11-7.11" style="fill: #274191;"/>
          <path d="M267.89,199.72c1.77-1.77,2.97-4.12,3.31-6.74-5.23,.69-9.36,4.82-10.05,10.05,2.63-.34,4.97-1.53,6.74-3.31" style="fill: #274191;"/>
          <path d="M258.19,203.03c-.69-5.23-4.82-9.36-10.05-10.05,.67,5.25,4.8,9.38,10.05,10.05" style="fill: #274191;"/>
          <path d="M258.19,179.98c-5.25,.67-9.38,4.8-10.05,10.05,5.23-.69,9.36-4.81,10.05-10.05" style="fill: #274191;"/>
          <path d="M65.77,501.98v17.26l22.08-17.83c0-7.53,2-14.83,5.64-21.27l-19.29-10.52c-5.45,9.82-8.43,20.93-8.43,32.36" style="fill: #e42023;"/>
          <path d="M200,316.52c-15.7,51.68-43.89,98.7-82.08,136.9l-17.42,17.43c-2.78,2.78-5.11,5.92-7.01,9.29l-19.29-10.52c2.98-5.36,6.67-10.35,11.09-14.77l13.12-13.12c38.21-38.22,66.41-85.26,82.11-136.97l12.43-40.94v-29.86c0-5.16,3.28-10.03,8.3-11.24,7.28-1.75,13.78,3.72,13.78,10.71v33.6l-15.02,49.5Z" style="fill: #24387e;"/>
          <path d="M460.08,378.76h-85.77c-1.74,0-3.15-1.41-3.15-3.15V234.05c0-5.78-4.15-11.04-9.9-11.61-6.61-.66-12.18,4.51-12.18,10.98v147.69c0,10.96,8.89,19.84,19.85,19.82l91.65-.08c6,0,11.41,2.38,15.44,6.21l19.05-11.59c-8.25-10.19-20.85-16.71-34.98-16.71" style="fill: #24387e;"/>
          <path d="M495.06,395.47l-19.05,11.59c4.29,4.09,7,9.82,7,16.22l22.08,22.33v-21.83c0-10.73-3.77-20.57-10.03-28.3" style="fill: #e42023;"/>
          <rect x="192.95" y="244.03" width="22.08" height="6.56" style="fill: #e42023;"/>
          <rect x="192.95" y="257.15" width="22.08" height="6.56" style="fill: #e42023;"/>
          <rect x="349.08" y="244.03" width="22.08" height="6.56" style="fill: #e42023;"/>
          <rect x="349.08" y="257.15" width="22.08" height="6.56" style="fill: #e42023;"/>
        </g>
      </g>
    </g>
  </g>
</svg>