<?xml version="1.0" encoding="UTF-8"?>
<svg xmlns="http://www.w3.org/2000/svg" viewBox="0 0 1497.1 513.13">
  <g id="a" data-name="Layer 1"/>
  <g id="b" data-name="Layer 2">
    <g id="c" data-name="Ñëîé 1">
      <g>
        <polygon points="254.46 512.35 254.46 340.87 291.75 340.87 291.75 370.44 333.17 370.44 333.17 229.2 431.09 229.2 431.21 196.41 496.1 196.41 496.1 271.45 520.96 271.45 520.96 90.59 614.54 90.59 614.54 150.46 683.89 150.46 683.89 225.64 712.89 225.64 712.89 18.73 797.12 18.73 797.12 112.87 855.11 112.87 855.11 55.79 968.21 55.79 968.21 165.78 1053.34 165.78 1053.34 207.54 1111.94 207.54 1111.94 261.84 1156.13 261.84 1156.13 101.33 1222.35 101.33 1222.35 310.41 1234.83 310.41 1234.83 280.38 1323.34 280.38 1323.34 361.75 1322.13 512.35 254.46 512.35" style="fill: #9ad2cd;"/>
        <polygon points="0 512.35 254.46 512.35 254.46 359.29 161.66 359.29 161.66 420.1 113.66 420.1 113.66 455.53 0 455.53 0 512.35" style="fill: #9ad2cd;"/>
        <rect x="31.17" y="435.82" width="57" height="19.71" style="fill: #9ad2cd;"/>
        <polygon points="1497.1 512.35 1264.63 512.35 1264.63 359.29 1357.44 359.29 1357.44 420.1 1405.43 420.1 1405.43 455.53 1497.1 455.53 1497.1 512.35" style="fill: #9ad2cd;"/>
        <g>
          <polygon points="602.49 43.38 602.49 512.35 644.26 512.35 644.26 0 602.49 43.38" style="fill: #a2d6d3;"/>
          <polygon points="738.93 0 644.26 0 644.26 0 644.26 512.35 738.93 512.35 738.93 0" style="fill: #8ececb;"/>
        </g>
        <g>
          <rect x="759.55" y="140.51" width="57.08" height="115.39" style="fill: #a2d6d3;"/>
          <rect x="759.55" y="255.89" width="57.08" height="112.54" style="fill: #a2d6d3;"/>
          <rect x="759.55" y="35.48" width="57.08" height="105.03" style="fill: #a2d6d3;"/>
          <rect x="759.55" y="368.43" width="57.08" height="143.92" style="fill: #a2d6d3;"/>
          <rect x="816.63" y="255.89" width="57.08" height="112.54" style="fill: #8ececb;"/>
          <rect x="816.63" y="140.51" width="57.08" height="115.39" style="fill: #8ececb;"/>
          <rect x="816.63" y="35.48" width="57.08" height="105.03" style="fill: #8ececb;"/>
          <rect x="816.63" y="368.43" width="57.08" height="143.92" style="fill: #8ececb;"/>
        </g>
        <g>
          <rect x="783.45" y="5.14" width="34.25" height="30.34" style="fill: #a2d6d3;"/>
          <rect x="817.7" y="5.14" width="34.25" height="30.34" style="fill: #8ececb;"/>
        </g>
        <g>
          <rect x="602.49" y="49.06" width="41.77" height="6.63" style="fill: #e9f4f5;"/>
          <rect x="644.26" y="49.06" width="94.67" height="6.63" style="fill: #a2d6d3;"/>
          <rect x="644.26" y="77.6" width="94.67" height="6.63" style="fill: #a2d6d3;"/>
          <rect x="602.49" y="77.6" width="41.77" height="6.63" style="fill: #e9f4f5;"/>
          <rect x="644.26" y="106.14" width="94.67" height="6.63" style="fill: #a2d6d3;"/>
          <rect x="602.49" y="106.14" width="41.77" height="6.63" style="fill: #e9f4f5;"/>
          <rect x="602.49" y="134.69" width="41.77" height="6.63" style="fill: #e9f4f5;"/>
          <rect x="644.26" y="134.69" width="94.67" height="6.63" style="fill: #a2d6d3;"/>
          <rect x="602.49" y="163.23" width="41.77" height="6.63" style="fill: #e9f4f5;"/>
          <rect x="644.26" y="163.23" width="94.67" height="6.63" style="fill: #a2d6d3;"/>
          <rect x="644.26" y="191.77" width="94.67" height="6.63" style="fill: #a2d6d3;"/>
          <rect x="602.49" y="191.77" width="41.77" height="6.63" style="fill: #e9f4f5;"/>
          <rect x="644.26" y="220.31" width="94.67" height="6.63" style="fill: #a2d6d3;"/>
          <rect x="602.49" y="220.31" width="41.77" height="6.63" style="fill: #e9f4f5;"/>
          <rect x="644.26" y="248.85" width="94.67" height="6.63" style="fill: #a2d6d3;"/>
          <rect x="602.49" y="248.85" width="41.77" height="6.63" style="fill: #e9f4f5;"/>
          <rect x="644.26" y="277.39" width="94.67" height="6.63" style="fill: #a2d6d3;"/>
          <rect x="602.49" y="277.39" width="41.77" height="6.63" style="fill: #e9f4f5;"/>
          <rect x="644.26" y="305.93" width="94.67" height="6.63" style="fill: #a2d6d3;"/>
          <rect x="602.49" y="305.93" width="41.77" height="6.63" style="fill: #e9f4f5;"/>
          <rect x="602.49" y="334.47" width="41.77" height="6.63" style="fill: #e9f4f5;"/>
          <rect x="644.26" y="334.47" width="94.67" height="6.63" style="fill: #a2d6d3;"/>
          <rect x="644.26" y="363.01" width="94.67" height="6.63" style="fill: #a2d6d3;"/>
          <rect x="602.49" y="363.01" width="41.77" height="6.63" style="fill: #e9f4f5;"/>
          <rect x="602.49" y="391.55" width="41.77" height="6.63" style="fill: #e9f4f5;"/>
          <rect x="644.26" y="391.55" width="94.67" height="6.63" style="fill: #a2d6d3;"/>
          <rect x="644.26" y="420.1" width="94.67" height="6.63" style="fill: #a2d6d3;"/>
          <rect x="602.49" y="420.1" width="41.77" height="6.63" style="fill: #e9f4f5;"/>
          <rect x="602.49" y="448.64" width="41.77" height="6.63" style="fill: #e9f4f5;"/>
          <rect x="644.26" y="448.64" width="94.67" height="6.63" style="fill: #a2d6d3;"/>
          <rect x="602.49" y="477.18" width="41.77" height="6.63" style="fill: #e9f4f5;"/>
          <rect x="644.26" y="477.18" width="94.67" height="6.63" style="fill: #a2d6d3;"/>
          <rect x="644.26" y="505.72" width="94.67" height="6.63" style="fill: #8ececb;"/>
          <rect x="602.49" y="505.72" width="41.77" height="6.63" style="fill: #8ececb;"/>
        </g>
        <g>
          <polygon points="1039.49 83.33 1039.49 512.35 1077.7 512.35 1077.7 43.65 1039.49 83.33" style="fill: #a2d6d3;"/>
          <polygon points="1164.31 43.65 1077.7 43.65 1077.7 43.65 1077.7 512.35 1164.31 512.35 1164.31 43.65" style="fill: #8ececb;"/>
        </g>
        <g>
          <rect x="1039.49" y="88.53" width="38.21" height="6.06" style="fill: #e9f4f5;"/>
          <rect x="1077.7" y="88.53" width="86.61" height="6.06" style="fill: #a2d6d3;"/>
          <rect x="1077.7" y="114.64" width="86.61" height="6.06" style="fill: #a2d6d3;"/>
          <rect x="1039.49" y="114.64" width="38.21" height="6.06" style="fill: #e9f4f5;"/>
          <rect x="1077.7" y="140.75" width="86.61" height="6.06" style="fill: #a2d6d3;"/>
          <rect x="1039.49" y="140.75" width="38.21" height="6.06" style="fill: #e9f4f5;"/>
          <rect x="1039.49" y="166.86" width="38.21" height="6.06" style="fill: #e9f4f5;"/>
          <rect x="1077.7" y="166.86" width="86.61" height="6.06" style="fill: #a2d6d3;"/>
          <rect x="1039.49" y="192.97" width="38.21" height="6.06" style="fill: #e9f4f5;"/>
          <rect x="1077.7" y="192.97" width="86.61" height="6.06" style="fill: #a2d6d3;"/>
          <rect x="1077.7" y="219.08" width="86.61" height="6.06" style="fill: #a2d6d3;"/>
          <rect x="1039.49" y="219.08" width="38.21" height="6.06" style="fill: #e9f4f5;"/>
          <rect x="1077.7" y="245.19" width="86.61" height="6.06" style="fill: #a2d6d3;"/>
          <rect x="1039.49" y="245.19" width="38.21" height="6.06" style="fill: #e9f4f5;"/>
          <rect x="1077.7" y="271.3" width="86.61" height="6.06" style="fill: #a2d6d3;"/>
          <rect x="1039.49" y="271.3" width="38.21" height="6.06" style="fill: #e9f4f5;"/>
          <rect x="1077.7" y="297.41" width="86.61" height="6.06" style="fill: #a2d6d3;"/>
          <rect x="1039.49" y="297.41" width="38.21" height="6.06" style="fill: #e9f4f5;"/>
          <rect x="1077.7" y="323.52" width="86.61" height="6.06" style="fill: #a2d6d3;"/>
          <rect x="1039.49" y="323.52" width="38.21" height="6.06" style="fill: #e9f4f5;"/>
          <rect x="1039.49" y="349.62" width="38.21" height="6.06" style="fill: #e9f4f5;"/>
          <rect x="1077.7" y="349.62" width="86.61" height="6.06" style="fill: #a2d6d3;"/>
          <rect x="1077.7" y="375.73" width="86.61" height="6.06" style="fill: #a2d6d3;"/>
          <rect x="1039.49" y="375.73" width="38.21" height="6.06" style="fill: #e9f4f5;"/>
          <rect x="1039.49" y="401.84" width="38.21" height="6.06" style="fill: #e9f4f5;"/>
          <rect x="1077.7" y="401.84" width="86.61" height="6.06" style="fill: #a2d6d3;"/>
          <rect x="1077.7" y="427.95" width="86.61" height="6.06" style="fill: #a2d6d3;"/>
          <rect x="1039.49" y="427.95" width="38.21" height="6.06" style="fill: #e9f4f5;"/>
          <rect x="1039.49" y="454.06" width="38.21" height="6.06" style="fill: #e9f4f5;"/>
          <rect x="1077.7" y="454.06" width="86.61" height="6.06" style="fill: #a2d6d3;"/>
          <rect x="1039.49" y="480.17" width="38.21" height="6.06" style="fill: #e9f4f5;"/>
          <rect x="1077.7" y="480.17" width="86.61" height="6.06" style="fill: #a2d6d3;"/>
          <rect x="1077.7" y="506.28" width="86.61" height="6.06" style="fill: #a2d6d3;"/>
          <rect x="1039.49" y="506.28" width="38.21" height="6.06" style="fill: #e9f4f5;"/>
        </g>
        <g>
          <g>
            <polygon points="466.01 56.92 460.54 56.92 460.54 512.35 515.21 512.35 515.21 56.92 466.01 56.92" style="fill: #a2d6d3;"/>
            <polygon points="569.87 56.92 564.4 56.92 515.21 56.92 515.21 512.35 569.87 512.35 569.87 56.92" style="fill: #8ececb;"/>
            <path d="M515.21,60.75h49.2v-9.63c0-2.85-2.31-5.16-5.16-5.16h-44.04v14.79Z" style="fill: #8ececb;"/>
            <path d="M515.21,45.96h-44.04c-2.85,0-5.16,2.31-5.16,5.16v9.63h49.2v-14.79Z" style="fill: #a2d6d3;"/>
          </g>
          <g>
            <rect x="460.54" y="71.81" width="54.66" height="19.64" style="fill: #e9f4f5;"/>
            <rect x="515.21" y="71.81" width="54.66" height="19.64" style="fill: #a2d6d3;"/>
            <rect x="515.21" y="110.07" width="54.66" height="19.64" style="fill: #a2d6d3;"/>
            <rect x="460.54" y="110.07" width="54.66" height="19.64" style="fill: #e9f4f5;"/>
            <rect x="460.54" y="148.34" width="54.66" height="19.64" style="fill: #e9f4f5;"/>
            <rect x="515.21" y="148.34" width="54.66" height="19.64" style="fill: #a2d6d3;"/>
            <rect x="515.21" y="186.6" width="54.66" height="19.64" style="fill: #a2d6d3;"/>
            <rect x="460.54" y="186.6" width="54.66" height="19.64" style="fill: #e9f4f5;"/>
            <rect x="460.54" y="224.86" width="54.66" height="19.64" style="fill: #e9f4f5;"/>
            <rect x="515.21" y="224.86" width="54.66" height="19.64" style="fill: #a2d6d3;"/>
            <rect x="515.21" y="263.13" width="54.66" height="19.64" style="fill: #a2d6d3;"/>
            <rect x="460.54" y="263.13" width="54.66" height="19.64" style="fill: #e9f4f5;"/>
            <rect x="515.21" y="301.39" width="54.66" height="19.64" style="fill: #a2d6d3;"/>
            <rect x="460.54" y="301.39" width="54.66" height="19.64" style="fill: #e9f4f5;"/>
            <rect x="460.54" y="339.65" width="54.66" height="19.64" style="fill: #e9f4f5;"/>
            <rect x="515.21" y="339.65" width="54.66" height="19.64" style="fill: #a2d6d3;"/>
            <rect x="515.21" y="377.92" width="54.66" height="19.64" style="fill: #a2d6d3;"/>
            <rect x="460.54" y="377.92" width="54.66" height="19.64" style="fill: #e9f4f5;"/>
            <rect x="515.21" y="416.18" width="54.66" height="19.64" style="fill: #a2d6d3;"/>
            <rect x="460.54" y="416.18" width="54.66" height="19.64" style="fill: #e9f4f5;"/>
            <rect x="515.21" y="454.44" width="54.66" height="19.64" style="fill: #a2d6d3;"/>
            <rect x="460.54" y="454.44" width="54.66" height="19.64" style="fill: #e9f4f5;"/>
            <rect x="515.21" y="492.71" width="54.66" height="19.64" style="fill: #a2d6d3;"/>
            <rect x="460.54" y="492.71" width="54.66" height="19.64" style="fill: #e9f4f5;"/>
          </g>
        </g>
        <g>
          <rect x="816.63" y="504.13" width="57.08" height="8.22" style="fill: #a2d6d3;"/>
          <rect x="759.55" y="504.13" width="57.08" height="8.22" style="fill: #e9f4f5;"/>
          <rect x="759.55" y="391.87" width="57.08" height="8.22" style="fill: #e9f4f5;"/>
          <rect x="816.63" y="391.87" width="57.08" height="8.22" style="fill: #a2d6d3;"/>
          <rect x="759.55" y="276.2" width="57.08" height="8.22" style="fill: #e9f4f5;"/>
          <rect x="816.63" y="276.2" width="57.08" height="8.22" style="fill: #a2d6d3;"/>
        </g>
        <g>
          <rect x="816.63" y="61.88" width="57.08" height="25.24" style="fill: #a2d6d3;"/>
          <rect x="759.55" y="61.88" width="57.08" height="25.24" style="fill: #e9f4f5;"/>
          <rect x="816.63" y="103.05" width="57.08" height="25.24" style="fill: #a2d6d3;"/>
          <rect x="759.55" y="103.05" width="57.08" height="25.24" style="fill: #e9f4f5;"/>
          <rect x="816.63" y="176.05" width="57.08" height="25.24" style="fill: #a2d6d3;"/>
          <rect x="759.55" y="176.05" width="57.08" height="25.24" style="fill: #e9f4f5;"/>
          <rect x="759.55" y="217.21" width="57.08" height="25.24" style="fill: #e9f4f5;"/>
          <rect x="816.63" y="217.21" width="57.08" height="25.24" style="fill: #a2d6d3;"/>
          <rect x="759.55" y="290.21" width="57.08" height="25.24" style="fill: #e9f4f5;"/>
          <rect x="816.63" y="290.21" width="57.08" height="25.24" style="fill: #a2d6d3;"/>
          <rect x="759.55" y="331.37" width="57.08" height="25.24" style="fill: #e9f4f5;"/>
          <rect x="816.63" y="331.37" width="57.08" height="25.24" style="fill: #a2d6d3;"/>
          <rect x="759.55" y="404.38" width="57.08" height="25.24" style="fill: #e9f4f5;"/>
          <rect x="816.63" y="404.38" width="57.08" height="25.24" style="fill: #a2d6d3;"/>
          <rect x="759.55" y="445.54" width="57.08" height="25.24" style="fill: #e9f4f5;"/>
          <rect x="816.63" y="445.54" width="57.08" height="25.24" style="fill: #a2d6d3;"/>
          <rect x="759.55" y="487.1" width="57.08" height="25.24" style="fill: #e9f4f5;"/>
          <rect x="816.63" y="487.1" width="57.08" height="25.24" style="fill: #a2d6d3;"/>
        </g>
        <g>
          <g>
            <rect x="307.32" y="233.47" width="49.65" height="86.54" style="fill: #a2d6d3;"/>
            <rect x="307.32" y="320.01" width="49.65" height="84.4" style="fill: #a2d6d3;"/>
            <rect x="307.32" y="154.7" width="49.65" height="78.77" style="fill: #a2d6d3;"/>
            <rect x="307.32" y="404.41" width="49.65" height="107.94" style="fill: #a2d6d3;"/>
            <rect x="356.97" y="320.01" width="49.65" height="84.4" style="fill: #8ececb;"/>
            <rect x="356.97" y="233.47" width="49.65" height="86.54" style="fill: #8ececb;"/>
            <rect x="356.97" y="154.7" width="49.65" height="78.77" style="fill: #8ececb;"/>
            <rect x="356.97" y="404.41" width="49.65" height="107.94" style="fill: #8ececb;"/>
          </g>
          <g>
            <rect x="327.18" y="133.94" width="29.79" height="22.76" style="fill: #a2d6d3;"/>
            <rect x="356.97" y="133.94" width="29.79" height="22.76" style="fill: #8ececb;"/>
          </g>
          <g>
            <rect x="356.97" y="174.5" width="49.65" height="18.93" style="fill: #a2d6d3;"/>
            <rect x="307.32" y="174.5" width="49.65" height="18.93" style="fill: #e9f4f5;"/>
            <rect x="356.97" y="205.37" width="49.65" height="18.93" style="fill: #a2d6d3;"/>
            <rect x="307.32" y="205.37" width="49.65" height="18.93" style="fill: #e9f4f5;"/>
            <rect x="356.97" y="260.12" width="49.65" height="18.93" style="fill: #a2d6d3;"/>
            <rect x="307.32" y="260.12" width="49.65" height="18.93" style="fill: #e9f4f5;"/>
            <rect x="307.32" y="290.99" width="49.65" height="18.93" style="fill: #e9f4f5;"/>
            <rect x="356.97" y="290.99" width="49.65" height="18.93" style="fill: #a2d6d3;"/>
            <rect x="307.32" y="345.75" width="49.65" height="18.93" style="fill: #e9f4f5;"/>
            <rect x="356.97" y="345.75" width="49.65" height="18.93" style="fill: #a2d6d3;"/>
            <rect x="307.32" y="376.62" width="49.65" height="18.93" style="fill: #e9f4f5;"/>
            <rect x="356.97" y="376.62" width="49.65" height="18.93" style="fill: #a2d6d3;"/>
            <rect x="307.32" y="431.37" width="49.65" height="18.93" style="fill: #e9f4f5;"/>
            <rect x="356.97" y="431.37" width="49.65" height="18.93" style="fill: #a2d6d3;"/>
            <rect x="307.32" y="462.24" width="49.65" height="18.93" style="fill: #e9f4f5;"/>
            <rect x="356.97" y="462.24" width="49.65" height="18.93" style="fill: #a2d6d3;"/>
            <rect x="307.32" y="493.41" width="49.65" height="18.93" style="fill: #e9f4f5;"/>
            <rect x="356.97" y="493.41" width="49.65" height="18.93" style="fill: #a2d6d3;"/>
          </g>
        </g>
        <g>
          <g>
            <rect x="192.33" y="297.96" width="38.25" height="66.67" style="fill: #a2d6d3;"/>
            <rect x="192.33" y="364.63" width="38.25" height="65.02" style="fill: #a2d6d3;"/>
            <rect x="192.33" y="237.28" width="38.25" height="60.68" style="fill: #a2d6d3;"/>
            <rect x="192.33" y="429.65" width="38.25" height="83.15" style="fill: #a2d6d3;"/>
            <rect x="230.57" y="364.63" width="38.25" height="65.02" style="fill: #8ececb;"/>
            <rect x="230.57" y="297.96" width="38.25" height="66.67" style="fill: #8ececb;"/>
            <rect x="230.57" y="237.28" width="38.25" height="60.68" style="fill: #8ececb;"/>
            <rect x="230.57" y="429.65" width="38.25" height="83.15" style="fill: #8ececb;"/>
          </g>
          <g>
            <rect x="207.62" y="221.28" width="22.95" height="17.53" style="fill: #a2d6d3;"/>
            <rect x="230.57" y="221.28" width="22.95" height="17.53" style="fill: #8ececb;"/>
          </g>
          <g>
            <rect x="230.57" y="252.53" width="38.25" height="14.59" style="fill: #a2d6d3;"/>
            <rect x="192.33" y="252.53" width="38.25" height="14.59" style="fill: #e9f4f5;"/>
            <rect x="230.57" y="276.32" width="38.25" height="14.59" style="fill: #a2d6d3;"/>
            <rect x="192.33" y="276.32" width="38.25" height="14.59" style="fill: #e9f4f5;"/>
            <rect x="230.57" y="318.5" width="38.25" height="14.59" style="fill: #a2d6d3;"/>
            <rect x="192.33" y="318.5" width="38.25" height="14.59" style="fill: #e9f4f5;"/>
            <rect x="192.33" y="342.28" width="38.25" height="14.59" style="fill: #e9f4f5;"/>
            <rect x="230.57" y="342.28" width="38.25" height="14.59" style="fill: #a2d6d3;"/>
            <rect x="192.33" y="384.46" width="38.25" height="14.59" style="fill: #e9f4f5;"/>
            <rect x="230.57" y="384.46" width="38.25" height="14.59" style="fill: #a2d6d3;"/>
            <rect x="192.33" y="408.24" width="38.25" height="14.59" style="fill: #e9f4f5;"/>
            <rect x="230.57" y="408.24" width="38.25" height="14.59" style="fill: #a2d6d3;"/>
            <rect x="192.33" y="450.42" width="38.25" height="14.59" style="fill: #e9f4f5;"/>
            <rect x="230.57" y="450.42" width="38.25" height="14.59" style="fill: #a2d6d3;"/>
            <rect x="192.33" y="474.21" width="38.25" height="14.59" style="fill: #e9f4f5;"/>
            <rect x="230.57" y="474.21" width="38.25" height="14.59" style="fill: #a2d6d3;"/>
            <rect x="192.33" y="498.22" width="38.25" height="14.59" style="fill: #e9f4f5;"/>
            <rect x="230.57" y="498.22" width="38.25" height="14.59" style="fill: #a2d6d3;"/>
          </g>
        </g>
        <g>
          <g>
            <rect x="1304.61" y="295.59" width="38.25" height="66.67" style="fill: #a2d6d3;"/>
            <rect x="1304.61" y="362.26" width="38.25" height="65.02" style="fill: #a2d6d3;"/>
            <rect x="1304.61" y="234.91" width="38.25" height="60.68" style="fill: #a2d6d3;"/>
            <rect x="1304.61" y="427.29" width="38.25" height="83.15" style="fill: #a2d6d3;"/>
            <rect x="1342.86" y="362.26" width="38.25" height="65.02" style="fill: #8ececb;"/>
            <rect x="1342.86" y="295.59" width="38.25" height="66.67" style="fill: #8ececb;"/>
            <rect x="1342.86" y="234.91" width="38.25" height="60.68" style="fill: #8ececb;"/>
            <rect x="1342.86" y="427.29" width="38.25" height="83.15" style="fill: #8ececb;"/>
          </g>
          <g>
            <rect x="1319.91" y="218.92" width="22.95" height="17.53" style="fill: #a2d6d3;"/>
            <rect x="1342.86" y="218.92" width="22.95" height="17.53" style="fill: #8ececb;"/>
          </g>
          <g>
            <rect x="1342.86" y="250.17" width="38.25" height="14.59" style="fill: #a2d6d3;"/>
            <rect x="1304.61" y="250.17" width="38.25" height="14.59" style="fill: #e9f4f5;"/>
            <rect x="1342.86" y="273.95" width="38.25" height="14.59" style="fill: #a2d6d3;"/>
            <rect x="1304.61" y="273.95" width="38.25" height="14.59" style="fill: #e9f4f5;"/>
            <rect x="1342.86" y="316.13" width="38.25" height="14.59" style="fill: #a2d6d3;"/>
            <rect x="1304.61" y="316.13" width="38.25" height="14.59" style="fill: #e9f4f5;"/>
            <rect x="1304.61" y="339.91" width="38.25" height="14.59" style="fill: #e9f4f5;"/>
            <rect x="1342.86" y="339.91" width="38.25" height="14.59" style="fill: #a2d6d3;"/>
            <rect x="1304.61" y="382.09" width="38.25" height="14.59" style="fill: #e9f4f5;"/>
            <rect x="1342.86" y="382.09" width="38.25" height="14.59" style="fill: #a2d6d3;"/>
            <rect x="1304.61" y="405.88" width="38.25" height="14.59" style="fill: #e9f4f5;"/>
            <rect x="1342.86" y="405.88" width="38.25" height="14.59" style="fill: #a2d6d3;"/>
            <rect x="1304.61" y="448.06" width="38.25" height="14.59" style="fill: #e9f4f5;"/>
            <rect x="1342.86" y="448.06" width="38.25" height="14.59" style="fill: #a2d6d3;"/>
            <rect x="1304.61" y="471.84" width="38.25" height="14.59" style="fill: #e9f4f5;"/>
            <rect x="1342.86" y="471.84" width="38.25" height="14.59" style="fill: #a2d6d3;"/>
            <rect x="1304.61" y="495.85" width="38.25" height="14.59" style="fill: #e9f4f5;"/>
            <rect x="1342.86" y="495.85" width="38.25" height="14.59" style="fill: #a2d6d3;"/>
          </g>
        </g>
        <g>
          <g>
            <polygon points="899.96 73.48 899.48 512.35 965.99 512.35 965.99 86.75 899.96 73.48" style="fill: #a2d6d3;"/>
            <polygon points="1009.89 116.58 968.3 87.21 965.99 86.75 965.99 512.35 1009.89 512.35 1009.89 116.58" style="fill: #8ececb;"/>
          </g>
          <rect x="978.09" y="123.38" width="31.33" height="7.75" style="fill: #a2d6d3;"/>
          <rect x="965.99" y="170.45" width="31.33" height="7.75" style="fill: #a2d6d3;"/>
          <rect x="914.84" y="147.13" width="31.33" height="7.75" style="fill: #e9f4f5;"/>
          <rect x="927.15" y="193.56" width="31.33" height="7.75" style="fill: #e9f4f5;"/>
          <rect x="901.55" y="218.68" width="31.33" height="7.75" style="fill: #e9f4f5;"/>
          <rect x="901.55" y="265.24" width="31.33" height="7.75" style="fill: #e9f4f5;"/>
          <rect x="928.99" y="288.41" width="31.33" height="7.75" style="fill: #e9f4f5;"/>
          <rect x="978.09" y="217.82" width="31.33" height="7.75" style="fill: #a2d6d3;"/>
          <g>
            <rect x="899.77" y="127.01" width="66.22" height="6.41" style="fill: #e9f4f5;"/>
            <rect x="965.99" y="127.01" width="43.9" height="6.41" style="fill: #a2d6d3;"/>
            <rect x="899.77" y="150.7" width="66.22" height="6.41" style="fill: #e9f4f5;"/>
            <rect x="965.99" y="150.7" width="43.9" height="6.41" style="fill: #a2d6d3;"/>
            <rect x="965.99" y="174.38" width="43.9" height="6.41" style="fill: #a2d6d3;"/>
            <rect x="899.77" y="174.38" width="66.22" height="6.41" style="fill: #e9f4f5;"/>
            <rect x="965.99" y="198.06" width="43.9" height="6.41" style="fill: #a2d6d3;"/>
            <rect x="899.77" y="198.06" width="66.22" height="6.41" style="fill: #e9f4f5;"/>
            <rect x="899.77" y="221.75" width="66.22" height="6.41" style="fill: #e9f4f5;"/>
            <rect x="965.99" y="221.75" width="43.9" height="6.41" style="fill: #a2d6d3;"/>
            <rect x="899.77" y="245.43" width="66.22" height="6.41" style="fill: #e9f4f5;"/>
            <rect x="965.99" y="245.43" width="43.9" height="6.41" style="fill: #a2d6d3;"/>
            <rect x="965.99" y="269.11" width="43.9" height="6.41" style="fill: #a2d6d3;"/>
            <rect x="899.77" y="269.11" width="66.22" height="6.41" style="fill: #e9f4f5;"/>
            <rect x="965.99" y="292.79" width="43.9" height="6.41" style="fill: #a2d6d3;"/>
            <rect x="899.77" y="292.79" width="66.22" height="6.41" style="fill: #e9f4f5;"/>
            <rect x="899.77" y="316.48" width="66.22" height="6.41" style="fill: #e9f4f5;"/>
            <rect x="965.99" y="316.48" width="43.9" height="6.41" style="fill: #a2d6d3;"/>
            <rect x="965.99" y="340.16" width="43.9" height="6.41" style="fill: #a2d6d3;"/>
            <rect x="899.77" y="340.16" width="66.22" height="6.41" style="fill: #e9f4f5;"/>
            <rect x="965.99" y="363.84" width="43.9" height="6.41" style="fill: #a2d6d3;"/>
            <rect x="899.77" y="363.84" width="66.22" height="6.41" style="fill: #e9f4f5;"/>
            <rect x="899.77" y="387.52" width="66.22" height="6.41" style="fill: #e9f4f5;"/>
            <rect x="965.99" y="387.52" width="43.9" height="6.41" style="fill: #a2d6d3;"/>
            <rect x="899.77" y="411.21" width="66.22" height="6.41" style="fill: #e9f4f5;"/>
            <rect x="965.99" y="411.21" width="43.9" height="6.41" style="fill: #a2d6d3;"/>
            <rect x="965.99" y="434.89" width="43.9" height="6.41" style="fill: #a2d6d3;"/>
            <rect x="899.77" y="434.89" width="66.22" height="6.41" style="fill: #e9f4f5;"/>
            <rect x="965.99" y="458.57" width="43.9" height="6.41" style="fill: #a2d6d3;"/>
            <rect x="899.77" y="458.57" width="66.22" height="6.41" style="fill: #e9f4f5;"/>
            <rect x="965.99" y="482.25" width="43.9" height="6.41" style="fill: #a2d6d3;"/>
            <rect x="899.77" y="482.25" width="66.22" height="6.41" style="fill: #e9f4f5;"/>
            <rect x="965.99" y="505.94" width="43.9" height="6.41" style="fill: #a2d6d3;"/>
            <rect x="899.77" y="505.94" width="66.22" height="6.41" style="fill: #e9f4f5;"/>
          </g>
        </g>
        <g>
          <g>
            <polygon points="1203.86 207.66 1200.2 207.66 1200.2 512.35 1236.77 512.35 1236.77 207.66 1203.86 207.66" style="fill: #a2d6d3;"/>
            <polygon points="1273.34 207.66 1269.68 207.66 1236.77 207.66 1236.77 512.35 1273.34 512.35 1273.34 207.66" style="fill: #8ececb;"/>
            <path d="M1236.77,210.22h32.91v-6.44c0-1.91-1.55-3.45-3.45-3.45h-29.46v9.9Z" style="fill: #8ececb;"/>
            <path d="M1236.77,200.33h-29.46c-1.91,0-3.45,1.55-3.45,3.45v6.44h32.91v-9.9Z" style="fill: #a2d6d3;"/>
          </g>
          <g>
            <rect x="1200.2" y="217.62" width="36.57" height="13.14" style="fill: #e9f4f5;"/>
            <rect x="1236.77" y="217.62" width="36.57" height="13.14" style="fill: #a2d6d3;"/>
            <rect x="1236.77" y="243.22" width="36.57" height="13.14" style="fill: #a2d6d3;"/>
            <rect x="1200.2" y="243.22" width="36.57" height="13.14" style="fill: #e9f4f5;"/>
            <rect x="1200.2" y="268.82" width="36.57" height="13.14" style="fill: #e9f4f5;"/>
            <rect x="1236.77" y="268.82" width="36.57" height="13.14" style="fill: #a2d6d3;"/>
            <rect x="1236.77" y="294.42" width="36.57" height="13.14" style="fill: #a2d6d3;"/>
            <rect x="1200.2" y="294.42" width="36.57" height="13.14" style="fill: #e9f4f5;"/>
            <rect x="1200.2" y="320.02" width="36.57" height="13.14" style="fill: #e9f4f5;"/>
            <rect x="1236.77" y="320.02" width="36.57" height="13.14" style="fill: #a2d6d3;"/>
            <rect x="1236.77" y="345.62" width="36.57" height="13.14" style="fill: #a2d6d3;"/>
            <rect x="1200.2" y="345.62" width="36.57" height="13.14" style="fill: #e9f4f5;"/>
            <rect x="1236.77" y="371.21" width="36.57" height="13.14" style="fill: #a2d6d3;"/>
            <rect x="1200.2" y="371.21" width="36.57" height="13.14" style="fill: #e9f4f5;"/>
            <rect x="1200.2" y="396.81" width="36.57" height="13.14" style="fill: #e9f4f5;"/>
            <rect x="1236.77" y="396.81" width="36.57" height="13.14" style="fill: #a2d6d3;"/>
            <rect x="1236.77" y="422.41" width="36.57" height="13.14" style="fill: #a2d6d3;"/>
            <rect x="1200.2" y="422.41" width="36.57" height="13.14" style="fill: #e9f4f5;"/>
            <rect x="1236.77" y="448.01" width="36.57" height="13.14" style="fill: #a2d6d3;"/>
            <rect x="1200.2" y="448.01" width="36.57" height="13.14" style="fill: #e9f4f5;"/>
            <rect x="1236.77" y="473.61" width="36.57" height="13.14" style="fill: #a2d6d3;"/>
            <rect x="1200.2" y="473.61" width="36.57" height="13.14" style="fill: #e9f4f5;"/>
            <rect x="1236.77" y="499.21" width="36.57" height="13.14" style="fill: #a2d6d3;"/>
            <rect x="1200.2" y="499.21" width="36.57" height="13.14" style="fill: #e9f4f5;"/>
          </g>
        </g>
        <g>
          <g>
            <polygon points="31.56 317.18 31.35 510.36 60.63 510.36 60.63 323.02 31.56 317.18" style="fill: #a2d6d3;"/>
            <polygon points="79.95 336.15 61.64 323.22 60.63 323.02 60.63 510.36 79.95 510.36 79.95 336.15" style="fill: #8ececb;"/>
          </g>
          <rect x="65.95" y="339.14" width="13.79" height="3.41" style="fill: #a2d6d3;"/>
          <rect x="60.63" y="359.86" width="13.79" height="3.41" style="fill: #a2d6d3;"/>
          <rect x="38.11" y="349.6" width="13.79" height="3.41" style="fill: #e9f4f5;"/>
          <rect x="43.53" y="370.04" width="13.79" height="3.41" style="fill: #e9f4f5;"/>
          <rect x="32.26" y="381.09" width="13.79" height="3.41" style="fill: #e9f4f5;"/>
          <rect x="32.26" y="401.59" width="13.79" height="3.41" style="fill: #e9f4f5;"/>
          <rect x="44.34" y="411.79" width="13.79" height="3.41" style="fill: #e9f4f5;"/>
          <rect x="65.95" y="380.71" width="13.79" height="3.41" style="fill: #a2d6d3;"/>
          <g>
            <rect x="31.48" y="340.74" width="29.15" height="2.82" style="fill: #e9f4f5;"/>
            <rect x="60.63" y="340.74" width="19.32" height="2.82" style="fill: #a2d6d3;"/>
            <rect x="31.48" y="351.17" width="29.15" height="2.82" style="fill: #e9f4f5;"/>
            <rect x="60.63" y="351.17" width="19.32" height="2.82" style="fill: #a2d6d3;"/>
            <rect x="60.63" y="361.59" width="19.32" height="2.82" style="fill: #a2d6d3;"/>
            <rect x="31.48" y="361.59" width="29.15" height="2.82" style="fill: #e9f4f5;"/>
            <rect x="60.63" y="372.02" width="19.32" height="2.82" style="fill: #a2d6d3;"/>
            <rect x="31.48" y="372.02" width="29.15" height="2.82" style="fill: #e9f4f5;"/>
            <rect x="31.48" y="382.44" width="29.15" height="2.82" style="fill: #e9f4f5;"/>
            <rect x="60.63" y="382.44" width="19.32" height="2.82" style="fill: #a2d6d3;"/>
            <rect x="31.48" y="392.87" width="29.15" height="2.82" style="fill: #e9f4f5;"/>
            <rect x="60.63" y="392.87" width="19.32" height="2.82" style="fill: #a2d6d3;"/>
            <rect x="60.63" y="403.29" width="19.32" height="2.82" style="fill: #a2d6d3;"/>
            <rect x="31.48" y="403.29" width="29.15" height="2.82" style="fill: #e9f4f5;"/>
            <rect x="60.63" y="413.72" width="19.32" height="2.82" style="fill: #a2d6d3;"/>
            <rect x="31.48" y="413.72" width="29.15" height="2.82" style="fill: #e9f4f5;"/>
            <rect x="31.48" y="424.14" width="29.15" height="2.82" style="fill: #e9f4f5;"/>
            <rect x="60.63" y="424.14" width="19.32" height="2.82" style="fill: #a2d6d3;"/>
            <rect x="60.63" y="434.57" width="19.32" height="2.82" style="fill: #a2d6d3;"/>
            <rect x="31.48" y="434.57" width="29.15" height="2.82" style="fill: #e9f4f5;"/>
            <rect x="60.63" y="444.99" width="19.32" height="2.82" style="fill: #a2d6d3;"/>
            <rect x="31.48" y="444.99" width="29.15" height="2.82" style="fill: #e9f4f5;"/>
            <rect x="31.48" y="455.42" width="29.15" height="2.82" style="fill: #e9f4f5;"/>
            <rect x="60.63" y="455.42" width="19.32" height="2.82" style="fill: #a2d6d3;"/>
            <rect x="31.48" y="465.84" width="29.15" height="2.82" style="fill: #e9f4f5;"/>
            <rect x="60.63" y="465.84" width="19.32" height="2.82" style="fill: #a2d6d3;"/>
            <rect x="60.63" y="476.27" width="19.32" height="2.82" style="fill: #a2d6d3;"/>
            <rect x="31.48" y="476.27" width="29.15" height="2.82" style="fill: #e9f4f5;"/>
            <rect x="60.63" y="486.69" width="19.32" height="2.82" style="fill: #a2d6d3;"/>
            <rect x="31.48" y="486.69" width="29.15" height="2.82" style="fill: #e9f4f5;"/>
            <rect x="60.63" y="497.12" width="19.32" height="2.82" style="fill: #a2d6d3;"/>
            <rect x="31.48" y="497.12" width="29.15" height="2.82" style="fill: #e9f4f5;"/>
            <rect x="60.63" y="507.54" width="19.32" height="2.82" style="fill: #a2d6d3;"/>
            <rect x="31.48" y="507.54" width="29.15" height="2.82" style="fill: #e9f4f5;"/>
          </g>
        </g>
        <g>
          <g>
            <polygon points="1407.61 249.79 1407.32 513.13 1443.71 513.13 1443.71 264.75 1407.61 249.79" style="fill: #a2d6d3;"/>
            <polygon points="1467.72 296.63 1444.97 280.56 1443.71 280.31 1443.71 513.13 1467.72 513.13 1467.72 296.63" style="fill: #8ececb;"/>
          </g>
          <rect x="1450.32" y="300.34" width="17.14" height="4.24" style="fill: #a2d6d3;"/>
          <rect x="1443.71" y="326.1" width="17.14" height="4.24" style="fill: #a2d6d3;"/>
          <rect x="1415.72" y="313.34" width="17.14" height="4.24" style="fill: #e9f4f5;"/>
          <rect x="1422.46" y="338.74" width="17.14" height="4.24" style="fill: #e9f4f5;"/>
          <rect x="1408.45" y="352.48" width="17.14" height="4.24" style="fill: #e9f4f5;"/>
          <rect x="1408.45" y="377.95" width="17.14" height="4.24" style="fill: #e9f4f5;"/>
          <rect x="1423.46" y="390.63" width="17.14" height="4.24" style="fill: #e9f4f5;"/>
          <rect x="1450.32" y="352.01" width="17.14" height="4.24" style="fill: #a2d6d3;"/>
          <g>
            <rect x="1407.48" y="302.33" width="36.23" height="3.51" style="fill: #e9f4f5;"/>
            <rect x="1443.71" y="302.33" width="24.02" height="3.51" style="fill: #a2d6d3;"/>
            <rect x="1407.48" y="315.29" width="36.23" height="3.51" style="fill: #e9f4f5;"/>
            <rect x="1443.71" y="315.29" width="24.02" height="3.51" style="fill: #a2d6d3;"/>
            <rect x="1443.71" y="328.25" width="24.02" height="3.51" style="fill: #a2d6d3;"/>
            <rect x="1407.48" y="328.25" width="36.23" height="3.51" style="fill: #e9f4f5;"/>
            <rect x="1443.71" y="341.2" width="24.02" height="3.51" style="fill: #a2d6d3;"/>
            <rect x="1407.48" y="341.2" width="36.23" height="3.51" style="fill: #e9f4f5;"/>
            <rect x="1407.48" y="354.16" width="36.23" height="3.51" style="fill: #e9f4f5;"/>
            <rect x="1443.71" y="354.16" width="24.02" height="3.51" style="fill: #a2d6d3;"/>
            <rect x="1407.48" y="367.11" width="36.23" height="3.51" style="fill: #e9f4f5;"/>
            <rect x="1443.71" y="367.11" width="24.02" height="3.51" style="fill: #a2d6d3;"/>
            <rect x="1443.71" y="380.07" width="24.02" height="3.51" style="fill: #a2d6d3;"/>
            <rect x="1407.48" y="380.07" width="36.23" height="3.51" style="fill: #e9f4f5;"/>
            <rect x="1443.71" y="393.02" width="24.02" height="3.51" style="fill: #a2d6d3;"/>
            <rect x="1407.48" y="393.02" width="36.23" height="3.51" style="fill: #e9f4f5;"/>
            <rect x="1407.48" y="405.98" width="36.23" height="3.51" style="fill: #e9f4f5;"/>
            <rect x="1443.71" y="405.98" width="24.02" height="3.51" style="fill: #a2d6d3;"/>
            <rect x="1443.71" y="418.94" width="24.02" height="3.51" style="fill: #a2d6d3;"/>
            <rect x="1407.48" y="418.94" width="36.23" height="3.51" style="fill: #e9f4f5;"/>
            <rect x="1443.71" y="431.89" width="24.02" height="3.51" style="fill: #a2d6d3;"/>
            <rect x="1407.48" y="431.89" width="36.23" height="3.51" style="fill: #e9f4f5;"/>
            <rect x="1407.48" y="444.85" width="36.23" height="3.51" style="fill: #e9f4f5;"/>
            <rect x="1443.71" y="444.85" width="24.02" height="3.51" style="fill: #a2d6d3;"/>
            <rect x="1407.48" y="457.8" width="36.23" height="3.51" style="fill: #e9f4f5;"/>
            <rect x="1443.71" y="457.8" width="24.02" height="3.51" style="fill: #a2d6d3;"/>
            <rect x="1443.71" y="470.76" width="24.02" height="3.51" style="fill: #a2d6d3;"/>
            <rect x="1407.48" y="470.76" width="36.23" height="3.51" style="fill: #e9f4f5;"/>
            <rect x="1443.71" y="483.71" width="24.02" height="3.51" style="fill: #a2d6d3;"/>
            <rect x="1407.48" y="483.71" width="36.23" height="3.51" style="fill: #e9f4f5;"/>
            <rect x="1443.71" y="496.67" width="24.02" height="3.51" style="fill: #a2d6d3;"/>
            <rect x="1407.48" y="496.67" width="36.23" height="3.51" style="fill: #e9f4f5;"/>
            <rect x="1443.71" y="509.63" width="24.02" height="3.51" style="fill: #a2d6d3;"/>
            <rect x="1407.48" y="509.63" width="36.23" height="3.51" style="fill: #e9f4f5;"/>
          </g>
        </g>
        <g>
          <g>
            <polygon points="98.39 248.22 98.11 512.07 138.09 512.07 138.09 256.2 98.39 248.22" style="fill: #a2d6d3;"/>
            <polygon points="164.49 274.13 139.48 256.48 138.09 256.2 138.09 512.07 164.49 512.07 164.49 274.13" style="fill: #8ececb;"/>
          </g>
          <rect x="145.37" y="278.22" width="18.83" height="4.66" style="fill: #a2d6d3;"/>
          <rect x="138.09" y="306.52" width="18.83" height="4.66" style="fill: #a2d6d3;"/>
          <rect x="107.34" y="292.5" width="18.83" height="4.66" style="fill: #e9f4f5;"/>
          <rect x="114.74" y="320.41" width="18.83" height="4.66" style="fill: #e9f4f5;"/>
          <rect x="99.35" y="335.51" width="18.83" height="4.66" style="fill: #e9f4f5;"/>
          <rect x="99.35" y="363.5" width="18.83" height="4.66" style="fill: #e9f4f5;"/>
          <rect x="115.85" y="377.44" width="18.83" height="4.66" style="fill: #e9f4f5;"/>
          <rect x="145.37" y="334.99" width="18.83" height="4.66" style="fill: #a2d6d3;"/>
          <g>
            <rect x="98.28" y="280.4" width="39.81" height="3.85" style="fill: #e9f4f5;"/>
            <rect x="138.09" y="280.4" width="26.39" height="3.85" style="fill: #a2d6d3;"/>
            <rect x="98.28" y="294.64" width="39.81" height="3.85" style="fill: #e9f4f5;"/>
            <rect x="138.09" y="294.64" width="26.39" height="3.85" style="fill: #a2d6d3;"/>
            <rect x="138.09" y="308.88" width="26.39" height="3.85" style="fill: #a2d6d3;"/>
            <rect x="98.28" y="308.88" width="39.81" height="3.85" style="fill: #e9f4f5;"/>
            <rect x="138.09" y="323.12" width="26.39" height="3.85" style="fill: #a2d6d3;"/>
            <rect x="98.28" y="323.12" width="39.81" height="3.85" style="fill: #e9f4f5;"/>
            <rect x="98.28" y="337.36" width="39.81" height="3.85" style="fill: #e9f4f5;"/>
            <rect x="138.09" y="337.36" width="26.39" height="3.85" style="fill: #a2d6d3;"/>
            <rect x="98.28" y="351.6" width="39.81" height="3.85" style="fill: #e9f4f5;"/>
            <rect x="138.09" y="351.6" width="26.39" height="3.85" style="fill: #a2d6d3;"/>
            <rect x="138.09" y="365.83" width="26.39" height="3.85" style="fill: #a2d6d3;"/>
            <rect x="98.28" y="365.83" width="39.81" height="3.85" style="fill: #e9f4f5;"/>
            <rect x="138.09" y="380.07" width="26.39" height="3.85" style="fill: #a2d6d3;"/>
            <rect x="98.28" y="380.07" width="39.81" height="3.85" style="fill: #e9f4f5;"/>
            <rect x="98.28" y="394.31" width="39.81" height="3.85" style="fill: #e9f4f5;"/>
            <rect x="138.09" y="394.31" width="26.39" height="3.85" style="fill: #a2d6d3;"/>
            <rect x="138.09" y="408.55" width="26.39" height="3.85" style="fill: #a2d6d3;"/>
            <rect x="98.28" y="408.55" width="39.81" height="3.85" style="fill: #e9f4f5;"/>
            <rect x="138.09" y="422.79" width="26.39" height="3.85" style="fill: #a2d6d3;"/>
            <rect x="98.28" y="422.79" width="39.81" height="3.85" style="fill: #e9f4f5;"/>
            <rect x="98.28" y="437.02" width="39.81" height="3.85" style="fill: #e9f4f5;"/>
            <rect x="138.09" y="437.02" width="26.39" height="3.85" style="fill: #a2d6d3;"/>
            <rect x="98.28" y="451.26" width="39.81" height="3.85" style="fill: #e9f4f5;"/>
            <rect x="138.09" y="451.26" width="26.39" height="3.85" style="fill: #a2d6d3;"/>
            <rect x="138.09" y="465.5" width="26.39" height="3.85" style="fill: #a2d6d3;"/>
            <rect x="98.28" y="465.5" width="39.81" height="3.85" style="fill: #e9f4f5;"/>
            <rect x="138.09" y="479.74" width="26.39" height="3.85" style="fill: #a2d6d3;"/>
            <rect x="98.28" y="479.74" width="39.81" height="3.85" style="fill: #e9f4f5;"/>
            <rect x="138.09" y="493.98" width="26.39" height="3.85" style="fill: #a2d6d3;"/>
            <rect x="98.28" y="493.98" width="39.81" height="3.85" style="fill: #e9f4f5;"/>
            <rect x="138.09" y="508.22" width="26.39" height="3.85" style="fill: #a2d6d3;"/>
            <rect x="98.28" y="508.22" width="39.81" height="3.85" style="fill: #e9f4f5;"/>
          </g>
        </g>
      </g>
    </g>
  </g>
</svg>