<?xml version="1.0" encoding="UTF-8"?>
<svg id="a" data-name="Layer 1" xmlns="http://www.w3.org/2000/svg" viewBox="0 0 1080 1080">
  <rect width="1080" height="1080" rx="28" ry="28" style="fill: #d22832;"/>
  <path d="M678.35,212.68H401.65c-103.49,0-187.7,84.2-187.7,187.7v279.24c0,103.49,84.2,187.7,187.7,187.7h276.71c103.5,0,187.7-84.21,187.7-187.7V400.38c0-103.49-84.2-187.7-187.7-187.7Zm125.58,466.94c0,69.24-56.34,125.58-125.58,125.58H401.65c-69.24,0-125.58-56.34-125.58-125.58V400.38c0-69.24,56.34-125.58,125.58-125.58h276.71c69.24,0,125.58,56.34,125.58,125.58v279.24Zm-263.42-309.24c-93.85,0-170.22,75.55-170.22,168.42s76.36,168.4,170.22,168.4,170.22-75.55,170.22-168.4-76.37-168.42-170.22-168.42Zm0,274.82c-59.68,0-108.22-47.74-108.22-106.4s48.54-106.4,108.22-106.4,108.22,47.73,108.22,106.4-48.54,106.4-108.22,106.4Zm213.32-281.7c0,22.12-17.93,40.05-40.05,40.05s-40.05-17.93-40.05-40.05,17.93-40.05,40.05-40.05,40.05,17.93,40.05,40.05Z" style="fill: #fff; fill-rule: evenodd;"/>
</svg>