<?xml version="1.0" encoding="UTF-8"?>
<svg id="a" data-name="Layer 1" xmlns="http://www.w3.org/2000/svg" viewBox="0 0 1080 1080">
  <rect width="1080" height="1080" style="fill: #06f; stroke: #1d1d1b; stroke-miterlimit: 10; stroke-width: .82px;"/>
  <path d="M822.64,261.06s63.04-24.58,57.79,35.12c-1.75,24.58-17.51,110.62-29.77,203.68l-42.03,275.67s-3.5,40.38-35.02,47.41c-31.52,7.02-78.8-24.58-87.56-31.61-7-5.27-131.34-84.28-175.12-122.91-12.26-10.53-26.27-31.61,1.75-56.19l183.87-175.58c21.01-21.07,42.03-70.23-45.53-10.54l-245.16,166.81s-28.02,17.56-80.55,1.76l-113.83-35.12s-42.03-26.34,29.77-52.68c175.12-82.53,390.51-166.81,581.39-245.82Z" style="fill: #fff;"/>
</svg>