<?xml version="1.0" encoding="UTF-8"?>
<svg id="a" data-name="Layer 1" xmlns="http://www.w3.org/2000/svg" viewBox="0 0 1080 1080">
  <rect width="1080" height="1080" rx="28" ry="28" style="fill: #06f;"/>
  <path d="M540,896.56c196.92,0,356.56-159.64,356.56-356.56s-159.64-356.56-356.56-356.56S183.44,343.08,183.44,540s159.64,356.56,356.56,356.56Zm-178.28-470.65c2.9,138.97,72.38,222.49,194.2,222.49h6.91v-79.51c44.76,4.45,78.61,37.19,92.2,79.51h63.25c-17.37-63.25-63.03-98.21-91.53-111.58,28.51-16.48,68.59-56.57,78.17-110.91h-57.46c-12.47,44.1-49.44,84.18-84.62,87.97v-87.97h-57.46v154.11c-35.63-8.91-80.62-52.11-82.62-154.11h-61.02Z" style="fill: #fff; fill-rule: evenodd;"/>
</svg>